:SAMPLES-PER-SECOND 30
:FULLY-SPECIFIED
:DEGREES
281
root  -25.3265 40.1134 4.07913 -158.141 -79.7949 152.673
RightUpLeg  -12.1387 -13.2838 -12.0944
RightLeg  23.848 -5.58886 -2.9142
RightFoot  -6.76755 -0.222515 4.41809
RightToes  0.000482159 0.542163 -0.142577
Spine  10.5227 -0.330997 1.59709
Spine1  20.9337 1.28857 -4.10082
HEad  43.0336 2.19257 -3.8556
LeftShoulder1  7.65266 -12.5988 -41.2022
LeftArm  -1.54453 1.86226 -31.1205
LeftForeArm  33.2339 -21.2489 -3.4534
LeftHand  -0.25398 0.0180481 5.50724
RightShoulder  5.45478 9.84554 34.9021
RightArm  -0.838724 8.2308 40.7052
RightForeArm  10.8701 18.3293 5.07658
RightHand  -0.953288 2.68292 -13.9179
LeftUpLeg  -7.53448 13.8278 -3.53354
LeftLeg  16.0202 9.0857 0.473402
LeftFoot  -5.89113 0.0655013 -0.630728
LeftToes  1.06244e-005 4.65856e-005 -8.18505e-006
282
root  -25.2568 40.0355 3.94098 -157.269 -79.2121 151.954
RightUpLeg  -12.971 -13.6114 -12.0353
RightLeg  25.3402 -6.25002 -3.43609
RightFoot  -7.02021 -0.217787 4.50409
RightToes  0.000482159 0.542163 -0.142577
Spine  11.4235 -0.392904 1.67381
Spine1  20.424 1.25907 -4.19433
HEad  42.0789 2.46651 -4.19297
LeftShoulder1  7.67813 -12.6412 -41.2331
LeftArm  -2.27565 2.03952 -30.9271
LeftForeArm  33.3084 -21.364 -3.41359
LeftHand  -0.25398 0.0180481 5.50724
RightShoulder  5.41153 9.83774 34.6061
RightArm  -0.471259 8.40516 40.9801
RightForeArm  10.1173 19.3103 4.84983
RightHand  -0.998816 2.87769 -14.2405
LeftUpLeg  -8.2448 14.9906 -3.91851
LeftLeg  16.8334 8.24318 0.893545
LeftFoot  -6.13028 0.0816251 -0.981803
LeftToes  1.06244e-005 4.65856e-005 -8.18505e-006
283
root  -25.1804 39.9733 3.77292 -156.021 -78.8508 150.97
RightUpLeg  -13.6118 -14.0486 -11.8084
RightLeg  26.3105 -6.13925 -3.51656
RightFoot  -7.19036 -0.2062 4.342
RightToes  0.000482159 0.542163 -0.142577
Spine  12.3714 -0.515765 1.98942
Spine1  19.8448 1.17711 -4.22229
HEad  41.1982 2.57603 -4.47255
LeftShoulder1  7.69958 -12.6881 -41.2282
LeftArm  -2.85377 2.16588 -30.8278
LeftForeArm  33.2093 -21.4943 -3.38557
LeftHand  -0.25398 0.0180481 5.50724
RightShoulder  5.35545 9.80598 34.2858
RightArm  -0.395727 8.46397 41.17
RightForeArm  9.72656 20.1814 4.66763
RightHand  -1.05221 3.1006 -14.6072
LeftUpLeg  -9.01868 15.7519 -4.33481
LeftLeg  17.389 7.61026 1.36377
LeftFoot  -6.05065 0.083707 -1.025
LeftToes  1.06244e-005 4.65856e-005 -8.18505e-006
284
root  -25.0766 39.9172 3.58192 -154.762 -78.8143 149.914
RightUpLeg  -14.0661 -14.344 -11.4676
RightLeg  26.9444 -6.12069 -3.59691
RightFoot  -7.61375 -0.178538 3.93493
RightToes  0.000482159 0.542163 -0.142577
Spine  13.7401 -0.748641 2.71158
Spine1  19.0891 1.02504 -4.21563
HEad  40.457 2.40189 -4.66777
LeftShoulder1  7.75527 -12.7786 -41.3011
LeftArm  -3.21508 2.13764 -30.7289
LeftForeArm  33.0675 -21.7119 -3.35769
LeftHand  -0.25398 0.0180481 5.50724
RightShoulder  5.29473 9.75516 33.9853
RightArm  -0.568197 8.41688 41.1201
RightForeArm  9.12685 21.0076 4.55435
RightHand  -1.12939 3.33421 -15.2484
LeftUpLeg  -9.8159 16.3159 -4.66749
LeftLeg  17.9449 6.91085 1.91522
LeftFoot  -5.81039 0.085539 -1.04639
LeftToes  1.06244e-005 4.65856e-005 -8.18505e-006
285
root  -24.9337 39.8284 3.36595 -153.317 -79.2805 148.778
RightUpLeg  -14.8027 -14.6223 -10.9348
RightLeg  27.7433 -6.45908 -3.90298
RightFoot  -8.17037 -0.151815 3.47958
RightToes  0.000482159 0.542163 -0.142577
Spine  15.4431 -1.15361 3.84006
Spine1  18.1572 0.714421 -4.09758
HEad  39.6828 1.93459 -4.77701
LeftShoulder1  7.82311 -12.8906 -41.3842
LeftArm  -3.62545 1.96863 -30.7247
LeftForeArm  32.995 -22.2058 -3.31413
LeftHand  -0.25398 0.0180481 5.50724
RightShoulder  5.20299 9.65806 33.5858
RightArm  -1.17416 8.29162 40.9377
RightForeArm  8.36242 21.8381 4.51124
RightHand  -1.22618 3.63993 -15.9864
LeftUpLeg  -11.1426 16.5915 -4.80143
LeftLeg  19.1504 5.87901 2.44477
LeftFoot  -5.68586 0.100443 -1.34252
LeftToes  1.06244e-005 4.65856e-005 -8.18505e-006
286
root  -24.7576 39.6627 3.12605 -151.761 -80.227 147.969
RightUpLeg  -16.3762 -15.1931 -9.97852
RightLeg  29.1253 -6.83739 -4.34175
RightFoot  -8.57625 -0.128923 2.93054
RightToes  0.000482159 0.542163 -0.142577
Spine  17.1021 -1.66368 5.29819
Spine1  17.0475 0.255287 -3.68458
HEad  38.6374 1.24752 -4.75412
LeftShoulder1  7.84714 -12.9753 -41.2912
LeftArm  -4.54496 1.86797 -31.0337
LeftForeArm  33.3707 -23.1708 -3.30346
LeftHand  -0.25398 0.0180481 5.50724
RightShoulder  5.04758 9.47134 32.9594
RightArm  -2.39227 8.11695 40.7645
RightForeArm  7.9202 22.6852 4.53161
RightHand  -1.30153 3.91867 -16.4575
LeftUpLeg  -13.5028 15.6582 -4.47742
LeftLeg  21.4656 5.50221 2.73383
LeftFoot  -5.88298 0.113687 -1.64268
LeftToes  1.06244e-005 4.65856e-005 -8.18505e-006
287
root  -24.5538 39.3896 2.8709 -151.266 -81.2738 148.596
RightUpLeg  -18.8529 -16.0031 -8.52064
RightLeg  31.2854 -7.00468 -4.81548
RightFoot  -9.01268 -0.10462 2.12683
RightToes  0.000482159 0.542163 -0.142577
Spine  18.656 -2.06166 6.83983
Spine1  15.8092 -0.206705 -2.78976
HEad  37.3094 0.47596 -4.58941
LeftShoulder1  7.86494 -13.07 -41.1369
LeftArm  -6.23839 2.01368 -31.5447
LeftForeArm  34.6443 -24.7317 -3.47149
LeftHand  -0.25398 0.0180481 5.50724
RightShoulder  4.84758 9.22839 32.1312
RightArm  -4.07617 8.11891 40.4999
RightForeArm  7.93802 23.3878 4.59874
RightHand  -1.34229 4.03505 -16.7583
LeftUpLeg  -16.8753 14.8661 -3.84875
LeftLeg  24.8764 5.1369 2.93165
LeftFoot  -6.52469 0.107157 -1.6073
LeftToes  1.06244e-005 4.65856e-005 -8.18505e-006
288
root  -24.3131 39.0324 2.60708 -152.362 -82.0413 150.772
RightUpLeg  -21.726 -16.8292 -6.88468
RightLeg  33.9905 -6.90819 -5.24135
RightFoot  -9.80815 -0.0832938 1.23886
RightToes  0.000482159 0.542163 -0.142577
Spine  20.3473 -2.2586 8.00405
Spine1  14.7627 -0.600318 -1.48352
HEad  35.8711 -0.24295 -4.28839
LeftShoulder1  7.98109 -13.2964 -41.1851
LeftArm  -8.16718 2.26977 -31.8187
LeftForeArm  36.0057 -26.8114 -3.8482
LeftHand  -0.25398 0.0180481 5.50724
RightShoulder  4.66408 9.04241 31.2286
RightArm  -5.72028 8.79288 40.0264
RightForeArm  7.77556 23.5008 4.62164
RightHand  -1.43014 4.2565 -17.4257
LeftUpLeg  -20.5501 14.6964 -3.10834
LeftLeg  28.8388 4.50675 3.02402
LeftFoot  -7.50912 0.103063 -1.74014
LeftToes  1.06244e-005 4.65856e-005 -8.18505e-006
289
root  -24.0386 38.6246 2.3468 -153.833 -82.5981 153.079
RightUpLeg  -24.5878 -17.7497 -5.40856
RightLeg  36.959 -6.5048 -5.49627
RightFoot  -10.9696 -0.0762515 0.690559
RightToes  0.000482159 0.542163 -0.142577
Spine  22.1844 -2.46834 8.67769
Spine1  14.3021 -1.04412 -0.13961
HEad  34.4278 -0.864411 -3.73778
LeftShoulder1  8.18514 -13.6871 -41.2864
LeftArm  -9.5944 2.20567 -31.6669
LeftForeArm  35.9469 -28.9276 -4.31093
LeftHand  -0.25398 0.0180481 5.50724
RightShoulder  4.51726 8.96927 30.258
RightArm  -6.95571 10.6361 39.5208
RightForeArm  6.9143 22.2999 4.56305
RightHand  -1.68318 5.14254 -18.7523
LeftUpLeg  -24.0088 14.4345 -2.30847
LeftLeg  32.9338 3.50832 2.7939
LeftFoot  -8.86618 0.111971 -2.79097
LeftToes  1.06244e-005 4.65856e-005 -8.18505e-006
290
root  -23.7609 38.1867 2.1136 -154.856 -83.161 154.808
RightUpLeg  -27.3836 -18.7659 -4.10879
RightLeg  39.9988 -5.93591 -5.6015
RightFoot  -12.2023 -0.0781549 0.566745
RightToes  0.000482159 0.542163 -0.142577
Spine  23.9497 -2.87291 9.15034
Spine1  14.3971 -1.61874 0.906235
HEad  33.0458 -1.42956 -2.80777
LeftShoulder1  8.3284 -14.0936 -41.0182
LeftArm  -10.4463 1.40218 -31.3261
LeftForeArm  34.5357 -30.3916 -4.71466
LeftHand  -0.25398 0.0180481 5.50724
RightShoulder  4.35597 8.93665 29.0328
RightArm  -8.60763 13.8034 39.1574
RightForeArm  6.88126 19.0219 4.77547
RightHand  -2.13293 6.81725 -20.4793
LeftUpLeg  -27.1789 13.4591 -1.42848
LeftLeg  37.0695 2.45371 2.35693
LeftFoot  -10.7186 0.0874635 -4.36497
LeftToes  1.06244e-005 4.65856e-005 -8.18505e-006
291
root  -23.5071 37.7372 1.92415 -156.415 -83.5756 157.053
RightUpLeg  -30.1382 -19.35 -2.87977
RightLeg  42.9688 -5.56926 -5.84158
RightFoot  -13.2838 -0.0812455 0.516941
RightToes  0.000482159 0.542163 -0.142577
Spine  25.6296 -3.32142 9.58985
Spine1  14.589 -2.15258 1.67016
HEad  31.9757 -1.97937 -1.61277
LeftShoulder1  8.31819 -14.3421 -40.342
LeftArm  -10.9598 -0.31879 -30.9468
LeftForeArm  33.5096 -30.8985 -4.88724
LeftHand  -0.25398 0.0180481 5.50724
RightShoulder  4.13448 8.85213 27.4361
RightArm  -11.881 17.9884 38.6727
RightForeArm  9.83917 13.623 5.32151
RightHand  -2.68287 8.71395 -22.2521
LeftUpLeg  -30.1178 12.2132 -0.567256
LeftLeg  41.4955 2.07885 2.3682
LeftFoot  -12.7343 0.0141528 -5.23675
LeftToes  1.06244e-005 4.65856e-005 -8.18505e-006
292
root  -23.2774 37.2779 1.77757 -159.386 -83.5638 160.66
RightUpLeg  -32.848 -19.067 -1.74488
RightLeg  45.894 -5.5204 -6.40152
RightFoot  -14.2193 -0.089079 0.288601
RightToes  0.000482159 0.542163 -0.142577
Spine  27.3884 -3.56251 9.93215
Spine1  14.5089 -2.42299 2.33434
HEad  31.5294 -2.54129 -0.465139
LeftShoulder1  8.20059 -14.412 -39.5481
LeftArm  -11.4826 -2.86507 -30.371
LeftForeArm  34.1681 -30.811 -4.83178
LeftHand  -0.25398 0.0180481 5.50724
RightShoulder  3.87431 8.69406 25.6736
RightArm  -14.9812 22.5714 37.6125
RightForeArm  13.3562 7.56769 5.11145
RightHand  -3.2185 10.2704 -23.9746
LeftUpLeg  -32.8465 11.69 0.0209685
LeftLeg  46.5151 2.41156 3.14919
LeftFoot  -14.0795 -0.0391043 -5.16897
LeftToes  1.06244e-005 4.65856e-005 -8.18505e-006
293
root  -23.0617 36.7893 1.66969 -163.088 -83.267 164.947
RightUpLeg  -35.5618 -18.3195 -0.719333
RightLeg  48.8855 -5.47867 -7.04479
RightFoot  -15.0707 -0.101935 0.000155269
RightToes  0.000482159 0.542163 -0.142577
Spine  29.1525 -3.60787 10.2272
Spine1  14.1831 -2.45691 2.95161
HEad  31.6416 -3.13158 0.444051
LeftShoulder1  8.03661 -14.4074 -38.6867
LeftArm  -12.5534 -5.93602 -29.5031
LeftForeArm  35.8808 -30.8526 -4.7498
LeftHand  -0.25398 0.0180481 5.50724
RightShoulder  3.61083 8.44041 24.0703
RightArm  -16.8007 26.9256 35.6396
RightForeArm  13.9887 2.86278 4.16149
RightHand  -3.67766 11.4119 -25.4653
LeftUpLeg  -35.3112 12.0628 0.236088
LeftLeg  51.7149 2.61272 4.0029
LeftFoot  -14.4338 -0.0517165 -5.11673
LeftToes  1.06244e-005 4.65856e-005 -8.18505e-006
